<?xml version="1.0" standalone="no"?><!DOCTYPE svg PUBLIC "-//W3C//DTD SVG 1.1//EN" "http://www.w3.org/Graphics/SVG/1.1/DTD/svg11.dtd"><svg t="1600850636559" class="icon" viewBox="0 0 1024 1024" version="1.1" xmlns="http://www.w3.org/2000/svg" p-id="11717" xmlns:xlink="http://www.w3.org/1999/xlink" width="24" height="24"><defs><style type="text/css"></style></defs><path d="M511.3 997.7c-65.9 0-129.9-12.9-190.1-38.4C263 934.7 210.8 899.5 166 854.6c-44.8-44.8-80.1-97.1-104.7-155.2-25.5-60.2-38.4-124.2-38.4-190.1 0-65.9 12.9-129.9 38.4-190.1C85.9 261.1 121.1 208.8 166 164c44.8-44.8 97.1-80.1 155.2-104.7C381.5 33.9 445.4 21 511.3 21s129.9 12.9 190.1 38.4c58.2 24.6 110.4 59.8 155.2 104.7 44.8 44.8 80.1 97.1 104.7 155.2 25.5 60.2 38.4 124.2 38.4 190.1 0 65.9-12.9 129.9-38.4 190.1-24.6 58.2-59.8 110.4-104.7 155.2-44.8 44.8-97.1 80.1-155.2 104.7-60.2 25.4-124.2 38.3-190.1 38.3z m0-904.7c-56.2 0-110.8 11-162.1 32.7-49.6 21-94.1 51-132.4 89.3s-68.3 82.8-89.3 132.4c-21.7 51.3-32.7 105.8-32.7 162.1 0 56.2 11 110.8 32.7 162.1 21 49.6 51 94.1 89.3 132.4 38.3 38.3 82.8 68.3 132.4 89.3C400.5 915 455 926 511.3 926s110.8-11 162.1-32.7c49.6-21 94.1-51 132.4-89.3C844 765.5 874 721 895 671.4c21.7-51.3 32.7-105.8 32.7-162.1 0-56.2-11-110.8-32.7-162.1-21-49.6-51-94.1-89.3-132.4s-82.8-68.3-132.4-89.3C622.1 104 567.6 93 511.3 93z" p-id="11718"></path><path d="M511.4 432.2m-36 0a36 36 0 1 0 72 0 36 36 0 1 0-72 0Z" p-id="11719"></path><path d="M511.4 590.4m-36 0a36 36 0 1 0 72 0 36 36 0 1 0-72 0Z" p-id="11720"></path><path d="M367.5 332.9h-38.7c-3.8 0-7.6 1.2-10.7 3.4-13.7 9.8-52.5 36.2-80.2 51.9-2.9 1.6-4.6 4.7-4.6 8v38.5h77.2v269.7c0 5.1 4.1 9.2 9.2 9.2h47.8c5.1 0 9.2-4.1 9.2-9.2V342c0-5-4.1-9.1-9.2-9.1zM727.9 332.9h-38.6c-3.8 0-7.6 1.2-10.7 3.4-13.7 9.8-52.5 36.2-80.2 51.9-2.9 1.6-4.6 4.7-4.6 8v29.4c0 5.1 4.1 9.2 9.2 9.2h68v269.7c0 5.1 4.1 9.2 9.2 9.2H728c5.1 0 9.2-4.1 9.2-9.2V342.1c0-5.1-4.2-9.2-9.3-9.2z" p-id="11721"></path></svg>